<?xml version="1.0" encoding="UTF-8"?>
<svg id="Layer_2" data-name="Layer 2" xmlns="http://www.w3.org/2000/svg" viewBox="0 0 841.89 595.28">
  <defs>
    <style>
      .cls-1 {
        stroke-width: 11px;
      }

      .cls-1, .cls-2, .cls-3, .cls-4, .cls-5, .cls-6 {
        stroke: #f26722;
      }

      .cls-1, .cls-3, .cls-4, .cls-5, .cls-6 {
        fill: none;
      }

      .cls-2 {
        fill: #f47727;
        font-family: CooperBlack, 'Cooper Black';
        font-size: 48px;
      }

      .cls-7 {
        fill: #f26722;
        stroke-width: 0px;
      }

      .cls-3, .cls-4 {
        stroke-width: 5px;
      }

      .cls-3, .cls-4, .cls-5, .cls-6 {
        stroke-miterlimit: 10;
      }

      .cls-4, .cls-5, .cls-6 {
        stroke-linecap: round;
      }

      .cls-5 {
        stroke-width: 6px;
      }

      .cls-6 {
        stroke-width: 7px;
      }
    </style>
  </defs>
  <g>
    <path class="cls-6" d="M349.09,208.46c-1.11,17.99,2.77,40.95,1.66,58.94,17.23.49,35.34-2.08,61.43,5.81,23.58,7.14,42.52,16.61,56.45,24.9,7.47-19.37,14.94-38.74,22.41-58.11"/>
    <path class="cls-7" d="M391.42,122.96c-21.5-6.48-50.67-4.82-71.29,3.94-5.36,2.36-10.26,5.29-14.08,9.5-3.7,4.36-6.63,9.41-8.58,14.78-4.41,11.99-4.29,25.49-.97,37.75,2.46,7.81,6.21,15.4,11.13,21.95,5.49,7.22,13.52,13.64,22.98,13.55,4.68-.33,9.38-2.12,13.75-3.93,4.47-1.96,8.91-4.13,13.03-6.83-3.77,3.21-8.01,5.85-12.35,8.24-4.9,2.57-10.29,5.28-16.19,5.46-15.62.21-27.18-13.15-33.97-25.84-9.86-18.17-10.69-41.65-.54-59.9,5.45-10,13.07-16.18,23.54-20.17,21.75-8.17,52.35-8.25,73.54,1.51h0Z"/>
    <path class="cls-7" d="M482.62,261.84c27.54,12.32,53.62,4.32,64.2-25.07,1.9-5.05,3.49-10.57,4.85-15.8.35-1.95.81-4.49,1.06-6.41,2.15-18.67-4.08-36.96-12.44-53.52-19.22-36.31-44.58-83.34-87.59-93.67-12.52-2.37-26.26-2.4-37.9,3.27-7.87,3.8-13.59,10.07-17.1,18.18-5.42,12.47-13.33,24.42-23.97,33.02-6.98,5.89-14.81,10.61-22.99,14.41,20.91-11.92,34.69-26.52,43.3-49.1,8.18-21.95,31.25-28.88,52.87-26.74,40.43,3.99,67.91,40.91,86.46,73.7,9.2,16.37,18.53,33.06,23.05,51.57.84,3.88,1.66,8.12,2.03,12.07.5,5.8.34,11.75-.44,17.53-.84,5.66-2.57,11.4-4.48,16.78-3.78,10.91-9.47,21.7-18.77,28.91-15.02,11.94-36.41,9.88-52.15.89h0Z"/>
    <path class="cls-7" d="M330.82,178.58c11.5,18.31,25.8,39.48,50.05,29.48,13.45-5.67,26.13-14.97,39.58-21.19,20.51-9.59,43.52-17.89,66.43-14.1-22.8.61-43.59,9.91-63.45,20.04-13.54,6.8-25.94,16.02-40.26,21.47-27.56,10.08-43.84-12.72-52.36-35.69h0Z"/>
    <path class="cls-7" d="M525.3,226.17c-11.79,10.42-28.42,16.33-44.44,14.34-3.44-.32-7.08-1.25-10.17-2.84-10.02-4.83-15.61-15.17-24.15-21.66-11.81-9.08-27.88-9.41-41.99-6.44-7.19,1.38-14.11,3.62-21.27,5.86-.19.06-.39-.04-.45-.23-.05-.15.01-.31.13-.4,20.34-14.24,49.99-21.55,69.48-1.79,7.52,7.17,12.58,17.45,22.32,21.76,2.04.91,4.42,1.57,6.64,1.88,8.71,1.53,17.68.75,26.15-2.02,6.16-2.08,12.09-5.06,17.3-9,.15-.12.38-.1.5.06.11.15.09.35-.05.47h0Z"/>
  </g>
  <g>
    <path class="cls-5" d="M509.92,435.83c-1.07,1.54-6.04,8.44-15.02,16.33-7.13,6.26-16.79,13.12-29.02,18.39-11.94,5.13-26.35,8.75-43.24,8.75-55.95,0-83.2-37.9-85.96-41.83"/>
    <path class="cls-3" d="M494.9,452.16c-7.13,6.26-16.79,13.12-29.02,18.39-14.03-15.12-21.43-30.28-14.43-37.26,7.56-7.56,16.89-9.1,33.18,7.2,3.47,3.47,6.97,7.46,10.27,11.67Z"/>
  </g>
  <line class="cls-4" x1="466.46" y1="444.59" x2="480.53" y2="461.37"/>
  <path class="cls-5" d="M319.36,439.11c2.43-.3,7.27-1.22,12.22-4.64,5.13-3.54,7.74-7.93,8.85-10.12"/>
  <path class="cls-5" d="M522.34,437.72c-1.97-.24-5.89-.99-9.92-3.76-4.16-2.87-6.28-6.43-7.18-8.21"/>
  <text class="cls-2" transform="translate(316.56 341.19)"><tspan x="0" y="0">BEAM OF</tspan></text>
  <text class="cls-2" transform="translate(315.89 392.36)"><tspan x="0" y="0">DELIGHT</tspan></text>
  <circle class="cls-1" cx="431.95" cy="273.26" r="231.7"/>
</svg>